<?xml version="1.0" encoding="UTF-8"?>
<svg width="14px" height="16px" viewBox="0 0 14 16" version="1.1" xmlns="http://www.w3.org/2000/svg" xmlns:xlink="http://www.w3.org/1999/xlink">
    <!-- Generator: Sketch 41 (35326) - http://www.bohemiancoding.com/sketch -->
    <title>calendar</title>
    <desc>Created with Sketch.</desc>
    <defs></defs>
    <g id="Page-1" stroke="none" stroke-width="1" fill="none" fill-rule="evenodd">
        <path d="M1,5 L1,2 L4,2 L4,3 L5,3 L5,2 L9,2 L9,3 L10,3 L10,2 L13,2 L13,15 L1,15 L1,6 L13,6 L13,5 L1,5 Z M10,1 L14,1 L14,16 L0,16 L0,1 L4,1 L4,0 L5,0 L5,1 L9,1 L9,0 L10,0 L10,1 Z M5,8 L6,8 L6,9 L5,9 L5,8 Z M7,8 L8,8 L8,9 L7,9 L7,8 Z M9,8 L10,8 L10,9 L9,9 L9,8 Z M5,10 L6,10 L6,11 L5,11 L5,10 Z M7,10 L8,10 L8,11 L7,11 L7,10 Z M9,10 L10,10 L10,11 L9,11 L9,10 Z M3,12 L4,12 L4,13 L3,13 L3,12 Z M3,10 L4,10 L4,11 L3,11 L3,10 Z M5,12 L6,12 L6,13 L5,13 L5,12 Z M7,12 L8,12 L8,13 L7,13 L7,12 Z" id="calendar" fill="#B7BFC6"></path>
    </g>
</svg>