<?xml version="1.0" encoding="UTF-8"?>
<svg width="22px" height="22px" viewBox="0 0 22 22" version="1.1" xmlns="http://www.w3.org/2000/svg" xmlns:xlink="http://www.w3.org/1999/xlink">
    <!-- Generator: Sketch 41 (35326) - http://www.bohemiancoding.com/sketch -->
    <title>Combined Shape</title>
    <desc>Created with Sketch.</desc>
    <defs></defs>
    <g id="Page-1" stroke="none" stroke-width="1" fill="none" fill-rule="evenodd">
        <path d="M11,21.5 C16.7989899,21.5 21.5,16.7989899 21.5,11 C21.5,5.20101013 16.7989899,0.5 11,0.5 C5.20101013,0.5 0.5,5.20101013 0.5,11 C0.5,16.7989899 5.20101013,21.5 11,21.5 Z M11,20.5 C5.75329488,20.5 1.5,16.2467051 1.5,11 C1.5,5.75329488 5.75329488,1.5 11,1.5 C16.2467051,1.5 20.5,5.75329488 20.5,11 C20.5,16.2467051 16.2467051,20.5 11,20.5 Z M6.35355339,10.6464466 L5.64644661,11.3535534 L9,14.7071068 L16.3535534,7.35355339 L15.6464466,6.64644661 L9,13.2928932 L6.35355339,10.6464466 Z" id="Combined-Shape" fill="#B8C0C6"></path>
    </g>
</svg>