<?xml version="1.0" encoding="UTF-8"?>
<svg width="16px" height="16px" viewBox="0 0 16 16" version="1.1" xmlns="http://www.w3.org/2000/svg" xmlns:xlink="http://www.w3.org/1999/xlink">
    <!-- Generator: Sketch 41 (35326) - http://www.bohemiancoding.com/sketch -->
    <title>Shape</title>
    <desc>Created with Sketch.</desc>
    <defs></defs>
    <g id="Page-1" stroke="none" stroke-width="1" fill="none" fill-rule="evenodd">
        <g id="57818" fill="#8B969F">
            <g id="Capa_1">
                <path d="M8.96684967,16 L7.03286275,16 C6.64658824,16 6.32669281,15.7105098 6.28862745,15.3268758 L6.09035294,14.1387451 C5.71783007,14.0229281 5.35589542,13.8724967 5.0100915,13.6906144 L4.01495425,14.401281 C3.89597386,14.4998954 3.72784314,14.5601569 3.55545098,14.5601569 C3.35555556,14.5601569 3.16786928,14.4821961 3.02640523,14.340732 L1.65900654,12.9733072 C1.3859085,12.7002092 1.36475817,12.2692549 1.60930719,11.9705098 L2.30938562,10.9899085 C2.12695425,10.6435817 1.97678431,10.2813595 1.8612549,9.90988235 L0.655660131,9.70870588 C0.289751634,9.67356863 0,9.35364706 0,8.96684967 L0,7.03315033 C0,6.64687582 0.289490196,6.32698039 0.673124183,6.28862745 L1.8612549,6.08980392 C1.97730719,5.71675817 2.12773856,5.35482353 2.30912418,5.01006536 L1.59871895,4.0149281 C1.36447059,3.73071895 1.38562092,3.29979085 1.65900654,3.0269281 L3.02666667,1.65900654 C3.29027451,1.39594771 3.74156863,1.37401307 4.02867974,1.60878431 L5.01061438,2.30915033 C5.35511111,2.12752941 5.71704575,1.97735948 6.09035294,1.86128105 L6.29100654,0.655947712 C6.32671895,0.289490196 6.64687582,0 7.03315033,0 L8.96711111,0 C9.35286275,0 9.67275817,0.289228758 9.71163399,0.672601307 L9.91019608,1.86128105 C10.2829804,1.97733333 10.644915,2.12752941 10.9896732,2.30915033 L11.9850719,1.59848366 C12.1037908,1.50013072 12.2719477,1.44010458 12.4442876,1.44010458 C12.644183,1.44010458 12.8318693,1.51783007 12.9730719,1.65900654 L14.3404706,3.0269281 C14.6133333,3.29898039 14.6352418,3.72964706 14.3912157,4.02867974 L13.6908758,5.0100915 C13.8727582,5.35484967 14.0226667,5.71678431 14.1387451,6.08983007 L15.3443399,6.29103268 C15.7107712,6.32698039 16,6.64687582 16,7.03315033 L16,8.96684967 C16,9.35364706 15.7105098,9.67328105 15.3263268,9.71053595 L14.138719,9.90909804 C14.0226667,10.2824052 13.8724706,10.6446275 13.6908497,10.9893595 L14.4015163,11.9842614 C14.6355033,12.2695163 14.6135425,12.700732 14.340183,12.9730458 L12.9730458,14.340183 C12.7105098,14.6029804 12.2581438,14.6262222 11.9702484,14.3901438 L10.9896471,13.6903007 C10.643817,13.8724706 10.2819085,14.022902 9.91016993,14.1384575 L9.70870588,15.3443137 C9.67275817,15.7105098 9.35286275,16 8.96684967,16 Z M4.99103268,13.1147974 C5.03545098,13.1147974 5.08013072,13.1258824 5.12031373,13.1486275 C5.52324183,13.3744314 5.95205229,13.5523399 6.39597386,13.6779085 C6.4943268,13.7056732 6.56781699,13.7878954 6.58473203,13.8888889 L6.81236601,15.2573595 C6.82559477,15.3847843 6.92156863,15.4712418 7.03286275,15.4712418 L8.96684967,15.4712418 C9.07814379,15.4712418 9.17385621,15.3850458 9.18470588,15.2747974 L9.41550327,13.8888889 C9.43215686,13.7881569 9.5059085,13.7059346 9.60428758,13.6781699 C10.0471111,13.5528366 10.4759477,13.374902 10.8791373,13.1488627 C10.9682353,13.0986405 11.0787712,13.104732 11.1620392,13.1644706 L12.2911895,13.9711111 C12.4051503,14.0628497 12.5212288,14.0437908 12.5984052,13.9668758 L13.9660654,12.5992157 C14.0464314,12.5191373 14.0527582,12.3929935 13.9813856,12.3055163 L13.1639216,11.1625621 C13.1041569,11.079268 13.0983529,10.9690458 13.1483137,10.8794248 C13.3740915,10.4780654 13.5517647,10.0492549 13.677098,9.60454902 C13.7048627,9.50593464 13.7870588,9.43244444 13.8883137,9.41552941 L15.2570458,9.18734641 C15.3844967,9.17411765 15.4709542,9.07869281 15.4709542,8.96737255 L15.4709542,7.0336732 C15.4709542,6.92237908 15.3847582,6.82640523 15.2745098,6.81555556 L13.8886013,6.58501961 C13.7873464,6.56810458 13.7053595,6.49461438 13.6773595,6.396 C13.5520261,5.95129412 13.3740915,5.52245752 13.1485752,5.1216732 C13.0986144,5.03202614 13.1044444,4.92177778 13.164183,4.8385098 L13.9713464,3.70881046 C14.0530458,3.60781699 14.0464314,3.48196078 13.9665882,3.40211765 L12.5989542,2.0339085 C12.5220392,1.95696732 12.3895686,1.95037908 12.3060131,2.01884967 L11.1623007,2.83657516 C11.0790065,2.89633987 10.9684967,2.90214379 10.8794248,2.85218301 C10.4778301,2.62666667 10.0489673,2.44873203 9.60454902,2.32287582 C9.50619608,2.29537255 9.43270588,2.21288889 9.41576471,2.11189542 L9.18786928,0.74345098 C9.17385621,0.613359477 9.08,0.528784314 8.96684967,0.528784314 L7.03286275,0.528784314 C6.91945098,0.528784314 6.82585621,0.613124183 6.8147451,0.725228758 L6.58473203,2.11084967 C6.56807843,2.21184314 6.4943268,2.29406536 6.39597386,2.32183007 C5.9507451,2.44794771 5.5219085,2.62562092 5.12138562,2.85113725 C5.03150327,2.90112418 4.9212549,2.89529412 4.83822222,2.83552941 L3.70797386,2.02836601 C3.59427451,1.93741176 3.47769935,1.95566013 3.40075817,2.03312418 L2.03312418,3.40078431 C1.95328105,3.48062745 1.94718954,3.60648366 2.01858824,3.69346405 L2.83579085,4.83746405 C2.89555556,4.92099346 2.90135948,5.03124183 2.85139869,5.12062745 C2.62614379,5.52143791 2.44820915,5.95024837 2.3220915,6.39521569 C2.29458824,6.49356863 2.21210458,6.56708497 2.11111111,6.584 L0.742666667,6.81215686 C0.613098039,6.8259085 0.528784314,6.91976471 0.528784314,7.03320261 L0.528784314,8.96690196 C0.528784314,9.08005229 0.612862745,9.17364706 0.724679739,9.18447059 L2.11084967,9.41500654 C2.21184314,9.43168627 2.29406536,9.50543791 2.32183007,9.60402614 C2.44687582,10.0463529 2.62481046,10.475451 2.85113725,10.8794248 C2.90112418,10.9687843 2.89529412,11.0787712 2.83552941,11.1620654 L2.02888889,12.2912418 C1.94640523,12.3927582 1.95273203,12.5185882 2.0328366,12.598719 L3.40049673,13.9661176 C3.47822222,14.0435817 3.61016993,14.0504575 3.69343791,13.9811765 L4.83717647,13.1639739 C4.8831634,13.1314248 4.93709804,13.1147974 4.99103268,13.1147974 Z M8.00026144,11.1646797 C6.25479739,11.1646797 4.83479739,9.74494118 4.83479739,7.99973856 C4.83479739,6.25427451 6.25479739,4.83427451 8.00026144,4.83427451 C9.74575163,4.83427451 11.1654641,6.25427451 11.1654641,7.99973856 C11.1652026,9.74465359 9.74546405,11.1646797 8.00026144,11.1646797 Z M8.00026144,5.36303268 C6.54643137,5.36303268 5.36355556,6.5459085 5.36355556,7.99973856 C5.36355556,9.45333333 6.54640523,10.6358954 8.00026144,10.6358954 C9.45385621,10.6358954 10.6367059,9.45333333 10.6367059,7.99973856 C10.6364444,6.54588235 9.45383007,5.36303268 8.00026144,5.36303268 Z" id="Shape"></path>
            </g>
        </g>
    </g>
</svg>