<?xml version="1.0" encoding="UTF-8"?>
<svg width="17px" height="3px" viewBox="0 0 17 3" version="1.1" xmlns="http://www.w3.org/2000/svg" xmlns:xlink="http://www.w3.org/1999/xlink">
    <!-- Generator: Sketch 41 (35326) - http://www.bohemiancoding.com/sketch -->
    <title>more</title>
    <desc>Created with Sketch.</desc>
    <defs></defs>
    <g id="Page-1" stroke="none" stroke-width="1" fill="none" fill-rule="evenodd">
        <path d="M1.5,3 C2.32842712,3 3,2.32842712 3,1.5 C3,0.671572875 2.32842712,0 1.5,0 C0.671572875,0 0,0.671572875 0,1.5 C0,2.32842712 0.671572875,3 1.5,3 Z M8.5,3 C9.32842712,3 10,2.32842712 10,1.5 C10,0.671572875 9.32842712,0 8.5,0 C7.67157288,0 7,0.671572875 7,1.5 C7,2.32842712 7.67157288,3 8.5,3 Z M15.5,3 C16.3284271,3 17,2.32842712 17,1.5 C17,0.671572875 16.3284271,0 15.5,0 C14.6715729,0 14,0.671572875 14,1.5 C14,2.32842712 14.6715729,3 15.5,3 Z" id="more" fill="#D2D7DB"></path>
    </g>
</svg>